<mxfile host="app.diagrams.net" modified="2023-04-19T03:53:34.909Z" agent="Mozilla/5.0 (Macintosh; Intel Mac OS X 10_15_7) AppleWebKit/605.1.15 (KHTML, like Gecko) Version/15.4 Safari/605.1.15" version="21.1.5" etag="yx9R3BnfP4nJ602Zxw_-" type="github">
  <diagram name="Page-1" id="q_V2T-h4sfvPQw7d-c_-">
    <mxGraphModel>
      <root>
        <mxCell id="0" />
        <mxCell id="1" parent="0" />
      </root>
    </mxGraphModel>
  </diagram>
</mxfile>
